<svg width="68" height="14" viewBox="0 0 68 14" fill="none" xmlns="http://www.w3.org/2000/svg">
<path d="M8.08789 7.54199C8.08789 9.44629 7.7627 10.8613 7.1123 11.7871C6.46191 12.7129 5.44531 13.1758 4.0625 13.1758C2.69727 13.1758 1.68652 12.7246 1.03027 11.8223C0.374023 10.9141 0.0341797 9.56055 0.0107422 7.76172V5.59082C0.0107422 3.70996 0.335938 2.3125 0.986328 1.39844C1.63672 0.484375 2.65625 0.0273438 4.04492 0.0273438C5.42188 0.0273438 6.43555 0.469727 7.08594 1.35449C7.73633 2.2334 8.07031 3.59277 8.08789 5.43262V7.54199ZM6.46191 5.31836C6.46191 3.94141 6.26855 2.93945 5.88184 2.3125C5.49512 1.67969 4.88281 1.36328 4.04492 1.36328C3.21289 1.36328 2.60645 1.67676 2.22559 2.30371C1.84473 2.93066 1.64844 3.89453 1.63672 5.19531V7.79688C1.63672 9.17969 1.83594 10.2021 2.23438 10.8643C2.63867 11.5205 3.24805 11.8486 4.0625 11.8486C4.86523 11.8486 5.45996 11.5381 5.84668 10.917C6.23926 10.2959 6.44434 9.31738 6.46191 7.98145V5.31836ZM18.1953 7.54199C18.1953 9.44629 17.8701 10.8613 17.2197 11.7871C16.5693 12.7129 15.5527 13.1758 14.1699 13.1758C12.8047 13.1758 11.7939 12.7246 11.1377 11.8223C10.4814 10.9141 10.1416 9.56055 10.1182 7.76172V5.59082C10.1182 3.70996 10.4434 2.3125 11.0938 1.39844C11.7441 0.484375 12.7637 0.0273438 14.1523 0.0273438C15.5293 0.0273438 16.543 0.469727 17.1934 1.35449C17.8438 2.2334 18.1777 3.59277 18.1953 5.43262V7.54199ZM16.5693 5.31836C16.5693 3.94141 16.376 2.93945 15.9893 2.3125C15.6025 1.67969 14.9902 1.36328 14.1523 1.36328C13.3203 1.36328 12.7139 1.67676 12.333 2.30371C11.9521 2.93066 11.7559 3.89453 11.7441 5.19531V7.79688C11.7441 9.17969 11.9434 10.2021 12.3418 10.8643C12.7461 11.5205 13.3555 11.8486 14.1699 11.8486C14.9727 11.8486 15.5674 11.5381 15.9541 10.917C16.3467 10.2959 16.5518 9.31738 16.5693 7.98145V5.31836ZM20.3926 12.1475C20.3926 11.8662 20.4746 11.6318 20.6387 11.4443C20.8086 11.2568 21.0605 11.1631 21.3945 11.1631C21.7285 11.1631 21.9805 11.2568 22.1504 11.4443C22.3262 11.6318 22.4141 11.8662 22.4141 12.1475C22.4141 12.417 22.3262 12.6426 22.1504 12.8242C21.9805 13.0059 21.7285 13.0967 21.3945 13.0967C21.0605 13.0967 20.8086 13.0059 20.6387 12.8242C20.4746 12.6426 20.3926 12.417 20.3926 12.1475ZM20.4014 4.38672C20.4014 4.10547 20.4834 3.87109 20.6475 3.68359C20.8174 3.49609 21.0693 3.40234 21.4033 3.40234C21.7373 3.40234 21.9893 3.49609 22.1592 3.68359C22.335 3.87109 22.4229 4.10547 22.4229 4.38672C22.4229 4.65625 22.335 4.88184 22.1592 5.06348C21.9893 5.24512 21.7373 5.33594 21.4033 5.33594C21.0693 5.33594 20.8174 5.24512 20.6475 5.06348C20.4834 4.88184 20.4014 4.65625 20.4014 4.38672ZM32.6621 7.54199C32.6621 9.44629 32.3369 10.8613 31.6865 11.7871C31.0361 12.7129 30.0195 13.1758 28.6367 13.1758C27.2715 13.1758 26.2607 12.7246 25.6045 11.8223C24.9482 10.9141 24.6084 9.56055 24.585 7.76172V5.59082C24.585 3.70996 24.9102 2.3125 25.5605 1.39844C26.2109 0.484375 27.2305 0.0273438 28.6191 0.0273438C29.9961 0.0273438 31.0098 0.469727 31.6602 1.35449C32.3105 2.2334 32.6445 3.59277 32.6621 5.43262V7.54199ZM31.0361 5.31836C31.0361 3.94141 30.8428 2.93945 30.4561 2.3125C30.0693 1.67969 29.457 1.36328 28.6191 1.36328C27.7871 1.36328 27.1807 1.67676 26.7998 2.30371C26.4189 2.93066 26.2227 3.89453 26.2109 5.19531V7.79688C26.2109 9.17969 26.4102 10.2021 26.8086 10.8643C27.2129 11.5205 27.8223 11.8486 28.6367 11.8486C29.4395 11.8486 30.0342 11.5381 30.4209 10.917C30.8135 10.2959 31.0186 9.31738 31.0361 7.98145V5.31836ZM42.7695 7.54199C42.7695 9.44629 42.4443 10.8613 41.7939 11.7871C41.1436 12.7129 40.127 13.1758 38.7441 13.1758C37.3789 13.1758 36.3682 12.7246 35.7119 11.8223C35.0557 10.9141 34.7158 9.56055 34.6924 7.76172V5.59082C34.6924 3.70996 35.0176 2.3125 35.668 1.39844C36.3184 0.484375 37.3379 0.0273438 38.7266 0.0273438C40.1035 0.0273438 41.1172 0.469727 41.7676 1.35449C42.418 2.2334 42.752 3.59277 42.7695 5.43262V7.54199ZM41.1436 5.31836C41.1436 3.94141 40.9502 2.93945 40.5635 2.3125C40.1768 1.67969 39.5645 1.36328 38.7266 1.36328C37.8945 1.36328 37.2881 1.67676 36.9072 2.30371C36.5264 2.93066 36.3301 3.89453 36.3184 5.19531V7.79688C36.3184 9.17969 36.5176 10.2021 36.916 10.8643C37.3203 11.5205 37.9297 11.8486 38.7441 11.8486C39.5469 11.8486 40.1416 11.5381 40.5283 10.917C40.9209 10.2959 41.126 9.31738 41.1436 7.98145V5.31836ZM44.9668 12.1475C44.9668 11.8662 45.0488 11.6318 45.2129 11.4443C45.3828 11.2568 45.6348 11.1631 45.9688 11.1631C46.3027 11.1631 46.5547 11.2568 46.7246 11.4443C46.9004 11.6318 46.9883 11.8662 46.9883 12.1475C46.9883 12.417 46.9004 12.6426 46.7246 12.8242C46.5547 13.0059 46.3027 13.0967 45.9688 13.0967C45.6348 13.0967 45.3828 13.0059 45.2129 12.8242C45.0488 12.6426 44.9668 12.417 44.9668 12.1475ZM44.9756 4.38672C44.9756 4.10547 45.0576 3.87109 45.2217 3.68359C45.3916 3.49609 45.6436 3.40234 45.9775 3.40234C46.3115 3.40234 46.5635 3.49609 46.7334 3.68359C46.9092 3.87109 46.9971 4.10547 46.9971 4.38672C46.9971 4.65625 46.9092 4.88184 46.7334 5.06348C46.5635 5.24512 46.3115 5.33594 45.9775 5.33594C45.6436 5.33594 45.3916 5.24512 45.2217 5.06348C45.0576 4.88184 44.9756 4.65625 44.9756 4.38672ZM54.5557 13H52.9209V2.16309L49.6426 3.36719V1.89062L54.3008 0.141602H54.5557V13ZM65.7002 0.194336V1.57422H65.4014C64.1357 1.59766 63.1279 1.97266 62.3779 2.69922C61.6279 3.42578 61.1943 4.44824 61.0771 5.7666C61.751 4.99316 62.6709 4.60645 63.8369 4.60645C64.9502 4.60645 65.8379 4.99902 66.5 5.78418C67.168 6.56934 67.502 7.58301 67.502 8.8252C67.502 10.1436 67.1416 11.1982 66.4209 11.9893C65.7061 12.7803 64.7451 13.1758 63.5381 13.1758C62.3135 13.1758 61.3203 12.707 60.5586 11.7695C59.7969 10.8262 59.416 9.61328 59.416 8.13086V7.50684C59.416 5.15137 59.917 3.35254 60.9189 2.11035C61.9268 0.862305 63.4238 0.223633 65.4102 0.194336H65.7002ZM63.5645 5.95996C63.0078 5.95996 62.4951 6.12695 62.0264 6.46094C61.5576 6.79492 61.2324 7.21387 61.0508 7.71777V8.31543C61.0508 9.37012 61.2881 10.2197 61.7627 10.8643C62.2373 11.5088 62.8291 11.8311 63.5381 11.8311C64.2705 11.8311 64.8447 11.5615 65.2607 11.0225C65.6826 10.4834 65.8936 9.77734 65.8936 8.9043C65.8936 8.02539 65.6797 7.31641 65.252 6.77734C64.8301 6.23242 64.2676 5.95996 63.5645 5.95996Z" fill="#C5C5C5"/>
</svg>
