<svg width="32" height="23" viewBox="0 0 32 23" fill="none" xmlns="http://www.w3.org/2000/svg">
<path d="M11.6709 0.569336V3.51367H11.2314C9.23926 3.54297 7.64746 4.08984 6.45605 5.1543C5.26465 6.21875 4.55664 7.72754 4.33203 9.68066C5.47461 8.47949 6.93457 7.87891 8.71191 7.87891C10.5967 7.87891 12.0811 8.54297 13.165 9.87109C14.2588 11.1992 14.8057 12.9131 14.8057 15.0127C14.8057 17.1807 14.166 18.9385 12.8867 20.2861C11.6172 21.624 9.94727 22.293 7.87695 22.293C5.74805 22.293 4.01953 21.5068 2.69141 19.9346C1.37305 18.3623 0.713867 16.3018 0.713867 13.7529V12.5371C0.713867 8.79688 1.62207 5.86719 3.43848 3.74805C5.26465 1.62891 7.88672 0.569336 11.3047 0.569336H11.6709ZM7.84766 10.75C7.06641 10.75 6.34863 10.9697 5.69434 11.4092C5.0498 11.8486 4.57617 12.4346 4.27344 13.167V14.251C4.27344 15.833 4.60547 17.0928 5.26953 18.0303C5.93359 18.958 6.79297 19.4219 7.84766 19.4219C8.90234 19.4219 9.7373 19.0264 10.3525 18.2354C10.9678 17.4443 11.2754 16.4043 11.2754 15.1152C11.2754 13.8262 10.9629 12.7764 10.3379 11.9658C9.71289 11.1553 8.88281 10.75 7.84766 10.75ZM31.5488 13.0205C31.5488 16.0869 30.9727 18.4014 29.8203 19.9639C28.6777 21.5166 26.9346 22.293 24.5908 22.293C22.2861 22.293 20.5479 21.5361 19.376 20.0225C18.2139 18.499 17.6182 16.248 17.5889 13.2695V9.57812C17.5889 6.51172 18.1602 4.21191 19.3027 2.67871C20.4551 1.14551 22.208 0.378906 24.5615 0.378906C26.8955 0.378906 28.6338 1.12598 29.7764 2.62012C30.9287 4.11426 31.5195 6.35059 31.5488 9.3291V13.0205ZM27.9893 9.03613C27.9893 7.03418 27.7158 5.56934 27.1689 4.6416C26.6221 3.7041 25.7529 3.23535 24.5615 3.23535C23.3994 3.23535 22.5449 3.67969 21.998 4.56836C21.4512 5.44727 21.1631 6.82422 21.1338 8.69922V13.5332C21.1338 15.5254 21.4121 17.0098 21.9688 17.9863C22.5254 18.9629 23.3994 19.4512 24.5908 19.4512C25.7334 19.4512 26.5781 19.002 27.125 18.1035C27.6719 17.1953 27.96 15.7793 27.9893 13.8555V9.03613Z" fill="#90BCFE"/>
</svg>
