<svg width="46" height="16" viewBox="0 0 46 16" fill="none" xmlns="http://www.w3.org/2000/svg">
<path opacity="0.5" d="M3.632 7.44C4.048 6.112 4.432 4.848 4.8 3.472H4.864C5.248 4.832 5.616 6.112 6.048 7.44L6.608 9.232H3.056L3.632 7.44ZM0.048 14H1.552L2.688 10.416H6.976L8.096 14H9.664L5.68 2.256H4.032L0.048 14ZM11.3188 14H12.8068V2.256H11.3188V14ZM18.2143 0.704C17.4463 3.184 16.1663 5.616 14.7903 7.2C14.9823 7.504 15.3023 8.144 15.4143 8.416C15.9263 7.792 16.4383 7.088 16.9023 6.304V15.232H18.0383V4.192C18.5182 3.168 18.9503 2.096 19.3023 1.024L18.2143 0.704ZM19.3183 12.72H20.3423V5.056H19.3183V12.72ZM27.7183 3.344C27.1583 4.224 26.3743 4.976 25.4463 5.584C24.4863 4.912 23.7343 4.128 23.2543 3.344H27.7183ZM28.5343 2.304L28.3263 2.352H23.8303C24.0863 1.888 24.3263 1.376 24.5343 0.879999L23.4462 0.608C22.7903 2.32 21.6223 3.968 20.3423 5.04C20.6143 5.2 21.0623 5.552 21.2543 5.744C21.7343 5.296 22.2303 4.752 22.6623 4.16C23.1263 4.832 23.7503 5.504 24.5343 6.112C23.2703 6.784 21.8303 7.232 20.3743 7.504C20.5823 7.712 20.8223 8.144 20.9343 8.416C22.5183 8.064 24.0703 7.552 25.4303 6.768C26.4703 7.424 27.7503 7.968 29.2383 8.32C29.3663 8.032 29.6703 7.584 29.8943 7.36C28.5503 7.088 27.3663 6.672 26.3743 6.128C27.6063 5.264 28.5823 4.112 29.2063 2.656L28.5343 2.304ZM27.0623 9.408C26.0063 10.544 23.8943 11.44 21.8783 11.904C22.1183 12.112 22.3583 12.432 22.5023 12.672C24.6463 12.112 26.7743 11.104 27.9743 9.792L27.0623 9.408ZM25.5423 7.824C24.6943 8.672 23.0943 9.408 21.6703 9.84C21.9103 10.016 22.1823 10.32 22.3423 10.544C23.8623 10.032 25.4783 9.216 26.4543 8.208L25.5423 7.824ZM28.5663 11.12C27.1263 12.752 24.2303 13.776 21.0143 14.224C21.2543 14.496 21.5103 14.896 21.6383 15.184C25.0143 14.592 27.9903 13.456 29.5743 11.568L28.5663 11.12ZM40.0223 4.672H43.2703C42.9503 6.768 42.4383 8.528 41.6703 9.968C40.8863 8.48 40.3263 6.736 39.9583 4.832L40.0223 4.672ZM45.5583 4.672V3.552H40.3903C40.6783 2.688 40.9023 1.776 41.0943 0.832L39.9423 0.608C39.4143 3.232 38.5503 5.76 37.3023 7.408V1.744H31.7023V2.912H36.1343V6.288H31.8943V12.352C31.8943 12.912 31.6383 13.136 31.3983 13.248C31.5903 13.536 31.7983 14.112 31.8783 14.464C32.2303 14.144 32.8223 13.872 37.4463 12.096C37.3663 11.824 37.2863 11.328 37.2863 10.976L33.0783 12.496V7.456H37.2703L37.1903 7.552C37.4623 7.744 37.9103 8.192 38.1023 8.416C38.5023 7.84 38.9023 7.2 39.2543 6.496C39.6863 8.208 40.2303 9.76 40.9663 11.088C40.0223 12.432 38.7423 13.44 37.0623 14.208C37.3023 14.464 37.6543 15.008 37.7663 15.296C39.3983 14.496 40.6783 13.472 41.6543 12.192C42.5503 13.456 43.6543 14.464 44.9983 15.152C45.1903 14.848 45.5263 14.384 45.8143 14.16C44.4063 13.52 43.2703 12.48 42.3903 11.152C43.4143 9.424 44.0863 7.296 44.5183 4.672H45.5583Z" fill="white"/>
</svg>
