<svg width="46" height="16" viewBox="0 0 46 16" fill="none" xmlns="http://www.w3.org/2000/svg">
<path d="M3.632 7.44C4.048 6.112 4.432 4.848 4.8 3.472H4.864C5.248 4.832 5.616 6.112 6.048 7.44L6.608 9.232H3.056L3.632 7.44ZM0.048 14H1.552L2.688 10.416H6.976L8.096 14H9.664L5.68 2.256H4.032L0.048 14ZM11.3188 14H12.8068V2.256H11.3188V14ZM28.2303 7.696C28.6143 6.944 29.0143 5.744 29.3503 4.688L28.5983 4.48L28.4063 4.528H25.4623V3.104H28.5183V2.096H25.4623V0.624H24.2943V2.096H21.4143V3.104H24.2943V4.528H20.8063V5.568H27.9903C27.7663 6.256 27.4943 6.944 27.2863 7.44L28.2303 7.696ZM24.5183 7.584C24.1023 7.152 23.2383 6.576 22.5343 6.192L21.9903 6.768C22.6943 7.184 23.5263 7.792 23.9263 8.256L24.5183 7.584ZM20.8223 8.208C21.5583 8.64 22.4383 9.296 22.8542 9.76L23.4462 9.072C23.0143 8.624 22.1343 8.016 21.4143 7.6L20.8223 8.208ZM17.2383 9.344C18.3583 7.952 19.4463 6.24 20.3743 4.528L19.4463 3.984C19.1743 4.592 18.8223 5.184 18.4863 5.776L16.5983 5.968C17.5423 4.576 18.4543 2.816 19.1743 1.136L18.1343 0.639999C17.4943 2.576 16.3263 4.656 15.9743 5.2C15.6223 5.744 15.3343 6.112 15.0623 6.176C15.2063 6.48 15.3663 7.008 15.4303 7.248C15.6543 7.136 16.0383 7.04 17.8623 6.784C17.2063 7.824 16.6143 8.656 16.3263 8.976C15.8623 9.584 15.5103 9.984 15.1903 10.048C15.3023 10.336 15.4783 10.832 15.5263 11.056C15.8463 10.848 16.3583 10.656 20.0703 9.648C20.0383 9.424 20.0063 8.96 20.0063 8.672L17.2383 9.344ZM19.9903 11.344C18.1983 11.984 16.3583 12.656 15.1423 13.024L15.4143 14.144C16.7743 13.632 18.5182 12.976 20.1823 12.304L19.9903 11.344ZM29.3663 11.024V9.968H25.7183C25.8463 9.328 25.8783 8.704 25.8783 8.096V6.192H24.7583V8.08C24.7583 8.688 24.7263 9.312 24.5663 9.968H20.5023V11.024H24.1983C23.6063 12.224 22.4543 13.424 20.1983 14.384C20.4383 14.576 20.7583 14.992 20.9023 15.264C23.6063 14.08 24.8703 12.56 25.4303 11.024H29.3663ZM25.3983 12.272C26.6623 13.152 28.1823 14.432 28.9023 15.264L29.6543 14.512C28.9183 13.68 27.3663 12.464 26.1343 11.632L25.3983 12.272ZM35.3663 7.824C35.5263 7.2 35.6703 6.512 35.8303 5.792H43.1423V4.752H36.0543C36.1823 4.16 36.3103 3.568 36.4223 3.024L35.2223 2.912C34.8703 4.784 34.3103 7.36 33.8783 8.88H42.3103C41.9903 12.016 41.6543 13.376 41.1903 13.776C41.0303 13.936 40.8223 13.968 40.4543 13.968C40.0543 13.968 38.9663 13.952 37.8783 13.84C38.0863 14.16 38.2303 14.624 38.2623 14.96C39.3023 15.024 40.3263 15.056 40.8383 15.008C41.4463 14.992 41.8303 14.88 42.1823 14.512C42.7903 13.904 43.1583 12.32 43.5263 8.368C43.5583 8.208 43.5743 7.824 43.5743 7.824H35.3663ZM40.9183 10.592H31.9263V11.696H40.9183V10.592ZM31.7183 1.488V4.576H32.8863V2.592H43.8943V4.576H45.0943V1.488H31.7183Z" fill="white"/>
</svg>
