<svg width="37" height="13" viewBox="0 0 37 13" fill="none" xmlns="http://www.w3.org/2000/svg">
<path d="M0.300781 13V0.203125H4.68652C6.13379 0.203125 7.23535 0.493164 7.99121 1.07324C8.74707 1.65332 9.125 2.51758 9.125 3.66602C9.125 4.25195 8.9668 4.7793 8.65039 5.24805C8.33398 5.7168 7.87109 6.08008 7.26172 6.33789C7.95312 6.52539 8.48633 6.87988 8.86133 7.40137C9.24219 7.91699 9.43262 8.53809 9.43262 9.26465C9.43262 10.4658 9.0459 11.3887 8.27246 12.0332C7.50488 12.6777 6.40332 13 4.96777 13H0.300781ZM2.52441 7.22559V11.2246H4.99414C5.69141 11.2246 6.23633 11.0518 6.62891 10.7061C7.02148 10.3604 7.21777 9.87988 7.21777 9.26465C7.21777 7.93457 6.53809 7.25488 5.17871 7.22559H2.52441ZM2.52441 5.59082H4.7041C5.39551 5.59082 5.93457 5.43555 6.32129 5.125C6.71387 4.80859 6.91016 4.36328 6.91016 3.78906C6.91016 3.15625 6.72852 2.69922 6.36523 2.41797C6.00781 2.13672 5.44824 1.99609 4.68652 1.99609H2.52441V5.59082ZM13.8799 8.24512V13H11.6562V0.203125H16.5518C17.9814 0.203125 19.1152 0.575195 19.9531 1.31934C20.7969 2.06348 21.2188 3.04785 21.2188 4.27246C21.2188 5.52637 20.8057 6.50195 19.9795 7.19922C19.1592 7.89648 18.0078 8.24512 16.5254 8.24512H13.8799ZM13.8799 6.46094H16.5518C17.3428 6.46094 17.9463 6.27637 18.3623 5.90723C18.7783 5.53223 18.9863 4.99316 18.9863 4.29004C18.9863 3.59863 18.7754 3.04785 18.3535 2.6377C17.9316 2.22168 17.3516 2.00781 16.6133 1.99609H13.8799V6.46094ZM26.0527 0.203125L29.7441 10.0117L33.4268 0.203125H36.3008V13H34.0859V8.78125L34.3057 3.13867L30.5264 13H28.9355L25.165 3.14746L25.3848 8.78125V13H23.1699V0.203125H26.0527Z" fill="#C5C5C5"/>
</svg>
