<svg width="106" height="70" viewBox="0 0 106 70" fill="none" xmlns="http://www.w3.org/2000/svg">
<path d="M39.7719 12.0202H46.4828L48.95 7.19577L52.3548 14.8442L56.5985 5.66608L59.0657 12.0202H65.7766" stroke="#90BCFE"/>
<mask id="path-2-inside-1" fill="white">
<path fill-rule="evenodd" clip-rule="evenodd" d="M100.953 69.913C100.957 69.6506 100.959 69.3876 100.959 69.1242C100.959 41.6806 79.3862 19.4332 52.7743 19.4332C26.1623 19.4332 4.58905 41.6806 4.58905 69.1242C4.58905 69.3876 4.59104 69.6506 4.595 69.913H100.953Z"/>
</mask>
<path d="M100.953 69.913V71.913H102.924L102.953 69.9432L100.953 69.913ZM4.595 69.913L2.59523 69.9432L2.62495 71.913H4.595V69.913ZM98.9594 69.1242C98.9594 69.3776 98.9575 69.6304 98.9537 69.8828L102.953 69.9432C102.957 69.6707 102.959 69.3977 102.959 69.1242H98.9594ZM52.7743 21.4332C78.2241 21.4332 98.9594 42.7268 98.9594 69.1242H102.959C102.959 40.6345 80.5483 17.4332 52.7743 17.4332V21.4332ZM6.58905 69.1242C6.58905 42.7268 27.3244 21.4332 52.7743 21.4332V17.4332C25.0002 17.4332 2.58905 40.6345 2.58905 69.1242H6.58905ZM6.59477 69.8828C6.59096 69.6305 6.58905 69.3776 6.58905 69.1242H2.58905C2.58905 69.3977 2.59111 69.6707 2.59523 69.9432L6.59477 69.8828ZM4.595 71.913H100.953V67.913H4.595V71.913Z" fill="#90BCFE" mask="url(#path-2-inside-1)"/>
<rect x="27.5344" y="42.3785" width="48.9501" height="16.8266" rx="8.41329" fill="#90BCFE"/>
<path d="M99.4298 59.2053H100.549C103.31 59.2053 105.549 61.4438 105.549 64.2053V69.9131H99.4298V59.2053Z" fill="#90BCFE"/>
<path d="M6.11876 59.2053H5C2.23858 59.2053 2.86102e-06 61.4438 2.86102e-06 64.2053V69.9131H6.11876V59.2053Z" fill="#90BCFE"/>
<path d="M64.6059 2.29454C64.6059 1.0273 65.6332 0 66.9005 0C68.1677 0 69.195 1.0273 69.195 2.29453V22.9453H64.6059V2.29454Z" fill="#90BCFE"/>
<path d="M35.5419 2.29454C35.5419 1.0273 36.5692 0 37.8364 0C39.1036 0 40.1309 1.0273 40.1309 2.29453V22.9453H35.5419V2.29454Z" fill="#90BCFE"/>
</svg>
