<svg width="1440" height="736" viewBox="0 0 1440 736" fill="none" xmlns="http://www.w3.org/2000/svg">
<rect y="60" width="1440" height="20" fill="#2A2F39"/>
<rect y="220" width="1440" height="20" fill="#2A2F39"/>
<rect y="460" width="1440" height="20" fill="#2A2F39"/>
<rect y="700" width="1440" height="20" fill="#2A2F39"/>
<rect y="140" width="1440" height="20" fill="#2A2F39"/>
<rect y="380" width="1440" height="20" fill="#2A2F39"/>
<rect y="620" width="1440" height="20" fill="#2A2F39"/>
<rect y="300" width="1440" height="20" fill="#2A2F39"/>
<rect y="540" width="1440" height="20" fill="#2A2F39"/>
<rect y="100" width="1440" height="20" fill="#2A2F39"/>
<rect y="260" width="1440" height="20" fill="#2A2F39"/>
<rect y="500" width="1440" height="20" fill="#2A2F39"/>
<rect y="180" width="1440" height="20" fill="#2A2F39"/>
<rect y="420" width="1440" height="20" fill="#2A2F39"/>
<rect y="660" width="1440" height="20" fill="#2A2F39"/>
<rect y="340" width="1440" height="20" fill="#2A2F39"/>
<rect y="580" width="1440" height="20" fill="#2A2F39"/>
<rect y="40" width="1440" height="20" fill="#39404F"/>
<rect y="200" width="1440" height="20" fill="#39404F"/>
<rect y="440" width="1440" height="20" fill="#39404F"/>
<rect y="680" width="1440" height="20" fill="#39404F"/>
<rect y="120" width="1440" height="20" fill="#39404F"/>
<rect y="280" width="1440" height="20" fill="#39404F"/>
<rect y="520" width="1440" height="20" fill="#39404F"/>
<rect y="80" width="1440" height="20" fill="#39404F"/>
<rect y="240" width="1440" height="20" fill="#39404F"/>
<rect y="480" width="1440" height="20" fill="#39404F"/>
<rect y="720" width="1440" height="20" fill="#39404F"/>
<rect y="360" width="1440" height="20" fill="#39404F"/>
<rect y="600" width="1440" height="20" fill="#39404F"/>
<rect y="160" width="1440" height="20" fill="#39404F"/>
<rect y="400" width="1440" height="20" fill="#39404F"/>
<rect y="640" width="1440" height="20" fill="#39404F"/>
<rect y="320" width="1440" height="20" fill="#39404F"/>
<rect y="560" width="1440" height="20" fill="#39404F"/>
<rect x="0.5" y="40.5" width="149" height="29" fill="white" stroke="#A9A9A9"/>
<rect x="0.5" y="140.5" width="149" height="29" fill="white" stroke="#A9A9A9"/>
<rect x="0.5" y="380.5" width="149" height="29" fill="white" stroke="#A9A9A9"/>
<rect x="0.5" y="620.5" width="149" height="29" fill="white" stroke="#A9A9A9"/>
<rect x="0.5" y="240.5" width="149" height="29" fill="white" stroke="#A9A9A9"/>
<rect x="0.5" y="480.5" width="149" height="29" fill="white" stroke="#A9A9A9"/>
<rect x="0.5" y="720.5" width="149" height="29" fill="white" stroke="#A9A9A9"/>
<rect x="0.5" y="350.5" width="149" height="29" fill="white" stroke="#A9A9A9"/>
<rect x="0.5" y="590.5" width="149" height="29" fill="white" stroke="#A9A9A9"/>
<rect x="0.5" y="110.5" width="149" height="29" fill="white" stroke="#A9A9A9"/>
<rect x="0.5" y="210.5" width="149" height="29" fill="white" stroke="#A9A9A9"/>
<rect x="0.5" y="450.5" width="149" height="29" fill="white" stroke="#A9A9A9"/>
<rect x="0.5" y="690.5" width="149" height="29" fill="white" stroke="#A9A9A9"/>
<rect x="0.5" y="70.5" width="149" height="39" fill="white" stroke="#A9A9A9"/>
<rect x="0.5" y="170.5" width="149" height="39" fill="white" stroke="#A9A9A9"/>
<rect x="0.5" y="410.5" width="149" height="39" fill="white" stroke="#A9A9A9"/>
<rect x="0.5" y="650.5" width="149" height="39" fill="white" stroke="#A9A9A9"/>
<rect x="0.5" y="270.5" width="149" height="39" fill="white" stroke="#A9A9A9"/>
<rect x="0.5" y="510.5" width="149" height="39" fill="white" stroke="#A9A9A9"/>
<rect x="0.5" y="310.5" width="149" height="39" fill="white" stroke="#A9A9A9"/>
<rect x="0.5" y="550.5" width="149" height="39" fill="white" stroke="#A9A9A9"/>
<rect y="60" width="100" height="20" fill="#202020"/>
<rect y="100" width="100" height="20" fill="#202020"/>
<rect y="160" width="100" height="20" fill="#202020"/>
<rect y="400" width="100" height="20" fill="#202020"/>
<rect y="640" width="100" height="20" fill="#202020"/>
<rect y="200" width="100" height="20" fill="#202020"/>
<rect y="440" width="100" height="20" fill="#202020"/>
<rect y="680" width="100" height="20" fill="#202020"/>
<rect y="260" width="100" height="20" fill="#202020"/>
<rect y="500" width="100" height="20" fill="#202020"/>
<rect y="300" width="100" height="20" fill="#202020"/>
<rect y="540" width="100" height="20" fill="#202020"/>
<rect y="340" width="100" height="20" fill="#202020"/>
<rect y="580" width="100" height="20" fill="#202020"/>
<line x1="-8.74228e-08" y1="39.0001" x2="1440" y2="39" stroke="white" stroke-opacity="0.5" stroke-width="2"/>
<line x1="221" y1="40" x2="221" y2="820" stroke="white" stroke-opacity="0.2" stroke-width="2"/>
<line x1="501" y1="40" x2="501" y2="820" stroke="white" stroke-opacity="0.2" stroke-width="2"/>
<line x1="781" y1="40" x2="781" y2="820" stroke="white" stroke-opacity="0.2" stroke-width="2"/>
<line x1="1061" y1="40" x2="1061" y2="820" stroke="white" stroke-opacity="0.2" stroke-width="2"/>
<line x1="1341" y1="40" x2="1341" y2="820" stroke="#7A7A7A" stroke-width="2"/>
<line x1="361" y1="40" x2="361" y2="820" stroke="white" stroke-opacity="0.2" stroke-width="2"/>
<line x1="641" y1="40" x2="641" y2="820" stroke="white" stroke-opacity="0.2" stroke-width="2"/>
<line x1="921" y1="40" x2="921" y2="820" stroke="white" stroke-opacity="0.2" stroke-width="2"/>
<line x1="1201" y1="40" x2="1201" y2="820" stroke="white" stroke-opacity="0.2" stroke-width="2"/>
<line x1="291" y1="40" x2="291" y2="820" stroke="white" stroke-opacity="0.2" stroke-width="2"/>
<line x1="571" y1="40" x2="571" y2="820" stroke="white" stroke-opacity="0.2" stroke-width="2"/>
<line x1="851" y1="40" x2="851" y2="820" stroke="white" stroke-opacity="0.2" stroke-width="2"/>
<line x1="1131" y1="40" x2="1131" y2="820" stroke="white" stroke-opacity="0.2" stroke-width="2"/>
<line x1="1411" y1="40" x2="1411" y2="820" stroke="#7A7A7A" stroke-width="2"/>
<line x1="431" y1="40" x2="431" y2="820" stroke="white" stroke-opacity="0.5" stroke-width="2"/>
<line x1="711" y1="40" x2="711" y2="820" stroke="white" stroke-opacity="0.5" stroke-width="2"/>
<line x1="991" y1="40" x2="991" y2="820" stroke="white" stroke-opacity="0.5" stroke-width="2"/>
<line x1="1271.5" y1="40" x2="1271.5" y2="820" stroke="#ABABAB" stroke-width="3"/>
<path d="M136.065 231.834C135.937 233.199 135.433 234.266 134.554 235.033C133.675 235.795 132.506 236.176 131.047 236.176C130.027 236.176 129.128 235.936 128.349 235.455C127.575 234.969 126.978 234.28 126.556 233.39C126.134 232.499 125.914 231.465 125.896 230.287V229.092C125.896 227.885 126.11 226.821 126.538 225.901C126.966 224.981 127.578 224.272 128.375 223.774C129.178 223.276 130.104 223.027 131.152 223.027C132.564 223.027 133.701 223.411 134.562 224.179C135.424 224.946 135.925 226.03 136.065 227.431H133.851C133.745 226.511 133.476 225.849 133.042 225.444C132.614 225.034 131.984 224.829 131.152 224.829C130.186 224.829 129.441 225.184 128.92 225.893C128.404 226.596 128.141 227.63 128.129 228.995V230.129C128.129 231.512 128.375 232.566 128.867 233.293C129.365 234.02 130.092 234.383 131.047 234.383C131.92 234.383 132.576 234.187 133.016 233.794C133.455 233.401 133.733 232.748 133.851 231.834H136.065ZM138.289 229.654L138.983 223.203H145.856V225.049H140.759L140.407 228.107C140.999 227.768 141.667 227.598 142.411 227.598C143.63 227.598 144.576 227.987 145.25 228.767C145.93 229.546 146.27 230.595 146.27 231.913C146.27 233.214 145.895 234.251 145.145 235.024C144.395 235.792 143.366 236.176 142.06 236.176C140.888 236.176 139.915 235.845 139.142 235.183C138.374 234.515 137.958 233.636 137.894 232.546H139.959C140.041 233.167 140.264 233.645 140.627 233.979C140.99 234.307 141.465 234.471 142.051 234.471C142.707 234.471 143.217 234.236 143.58 233.768C143.949 233.299 144.134 232.66 144.134 231.852C144.134 231.072 143.932 230.457 143.527 230.006C143.123 229.549 142.566 229.32 141.857 229.32C141.471 229.32 141.143 229.373 140.873 229.479C140.604 229.578 140.311 229.777 139.994 230.076L138.289 229.654Z" fill="#838383"/>
<path d="M136.065 471.834C135.937 473.199 135.433 474.266 134.554 475.033C133.675 475.795 132.506 476.176 131.047 476.176C130.027 476.176 129.128 475.936 128.349 475.455C127.575 474.969 126.978 474.28 126.556 473.39C126.134 472.499 125.914 471.465 125.896 470.287V469.092C125.896 467.885 126.11 466.821 126.538 465.901C126.966 464.981 127.578 464.272 128.375 463.774C129.178 463.276 130.104 463.027 131.152 463.027C132.564 463.027 133.701 463.411 134.562 464.179C135.424 464.946 135.925 466.03 136.065 467.431H133.851C133.745 466.511 133.476 465.849 133.042 465.444C132.614 465.034 131.984 464.829 131.152 464.829C130.186 464.829 129.441 465.184 128.92 465.893C128.404 466.596 128.141 467.63 128.129 468.995V470.129C128.129 471.512 128.375 472.566 128.867 473.293C129.365 474.02 130.092 474.383 131.047 474.383C131.92 474.383 132.576 474.187 133.016 473.794C133.455 473.401 133.733 472.748 133.851 471.834H136.065ZM144.942 471.438H146.533V473.152H144.942V476H142.807V473.152H137.278L137.217 471.852L142.736 463.203H144.942V471.438ZM139.458 471.438H142.807V466.095L142.648 466.376L139.458 471.438Z" fill="#838383"/>
<path d="M136.065 711.834C135.937 713.199 135.433 714.266 134.554 715.033C133.675 715.795 132.506 716.176 131.047 716.176C130.027 716.176 129.128 715.936 128.349 715.455C127.575 714.969 126.978 714.28 126.556 713.39C126.134 712.499 125.914 711.465 125.896 710.287V709.092C125.896 707.885 126.11 706.821 126.538 705.901C126.966 704.981 127.578 704.272 128.375 703.774C129.178 703.276 130.104 703.027 131.152 703.027C132.564 703.027 133.701 703.411 134.562 704.179C135.424 704.946 135.925 706.03 136.065 707.431H133.851C133.745 706.511 133.476 705.849 133.042 705.444C132.614 705.034 131.984 704.829 131.152 704.829C130.186 704.829 129.441 705.184 128.92 705.893C128.404 706.596 128.141 707.63 128.129 708.995V710.129C128.129 711.512 128.375 712.566 128.867 713.293C129.365 714.02 130.092 714.383 131.047 714.383C131.92 714.383 132.576 714.187 133.016 713.794C133.455 713.401 133.733 712.748 133.851 711.834H136.065ZM140.188 708.626H141.488C142.145 708.62 142.663 708.45 143.044 708.116C143.431 707.782 143.624 707.299 143.624 706.666C143.624 706.057 143.463 705.585 143.141 705.251C142.824 704.911 142.338 704.741 141.682 704.741C141.107 704.741 140.636 704.908 140.267 705.242C139.897 705.57 139.713 706.001 139.713 706.534H137.577C137.577 705.878 137.75 705.28 138.096 704.741C138.447 704.202 138.934 703.783 139.555 703.484C140.182 703.18 140.882 703.027 141.655 703.027C142.933 703.027 143.935 703.35 144.661 703.994C145.394 704.633 145.76 705.523 145.76 706.666C145.76 707.24 145.575 707.782 145.206 708.292C144.843 708.796 144.371 709.177 143.791 709.435C144.494 709.675 145.027 710.053 145.391 710.568C145.76 711.084 145.944 711.699 145.944 712.414C145.944 713.562 145.549 714.477 144.758 715.156C143.973 715.836 142.938 716.176 141.655 716.176C140.425 716.176 139.417 715.848 138.632 715.191C137.847 714.535 137.454 713.662 137.454 712.572H139.59C139.59 713.135 139.777 713.592 140.152 713.943C140.533 714.295 141.043 714.471 141.682 714.471C142.344 714.471 142.865 714.295 143.246 713.943C143.627 713.592 143.817 713.082 143.817 712.414C143.817 711.74 143.618 711.222 143.22 710.858C142.821 710.495 142.229 710.313 141.444 710.313H140.188V708.626Z" fill="#838383"/>
<line x1="149" y1="15" x2="149" y2="40" stroke="white" stroke-opacity="0.7" stroke-width="2"/>
<line x1="221" y1="28" x2="221" y2="38" stroke="white" stroke-opacity="0.5" stroke-width="2"/>
<line x1="501" y1="28" x2="501" y2="38" stroke="white" stroke-opacity="0.5" stroke-width="2"/>
<line x1="781" y1="28" x2="781" y2="38" stroke="white" stroke-opacity="0.5" stroke-width="2"/>
<line x1="1061" y1="28" x2="1061" y2="38" stroke="white" stroke-opacity="0.5" stroke-width="2"/>
<line x1="1341" y1="28" x2="1341" y2="38" stroke="white" stroke-opacity="0.5" stroke-width="2"/>
<line x1="291" y1="28" x2="291" y2="38" stroke="white" stroke-opacity="0.5" stroke-width="2"/>
<line x1="571" y1="28" x2="571" y2="38" stroke="white" stroke-opacity="0.5" stroke-width="2"/>
<line x1="851" y1="28" x2="851" y2="38" stroke="white" stroke-opacity="0.5" stroke-width="2"/>
<line x1="1131" y1="28" x2="1131" y2="38" stroke="white" stroke-opacity="0.5" stroke-width="2"/>
<line x1="1411" y1="28" x2="1411" y2="38" stroke="white" stroke-opacity="0.5" stroke-width="2"/>
<line x1="361" y1="28" x2="361" y2="38" stroke="white" stroke-opacity="0.5" stroke-width="2"/>
<line x1="641" y1="28" x2="641" y2="38" stroke="white" stroke-opacity="0.5" stroke-width="2"/>
<line x1="921" y1="28" x2="921" y2="38" stroke="white" stroke-opacity="0.5" stroke-width="2"/>
<line x1="1201" y1="28" x2="1201" y2="38" stroke="white" stroke-opacity="0.5" stroke-width="2"/>
<line x1="431" y1="15" x2="431" y2="40" stroke="white" stroke-opacity="0.7" stroke-width="2"/>
<line x1="711" y1="15" x2="711" y2="40" stroke="white" stroke-opacity="0.7" stroke-width="2"/>
<line x1="991" y1="15" x2="991" y2="40" stroke="white" stroke-opacity="0.7" stroke-width="2"/>
<line x1="1271.5" y1="15" x2="1271.5" y2="40" stroke="white" stroke-opacity="0.5" stroke-width="3"/>
<path d="M158.983 33H157.712V24.5713L155.162 25.5078V24.3594L158.785 22.999H158.983V33Z" fill="#BFBFBF"/>
<path d="M443.349 33H436.827V32.0908L440.272 28.2627C440.783 27.6839 441.134 27.2145 441.325 26.8545C441.521 26.4899 441.619 26.1139 441.619 25.7266C441.619 25.207 441.462 24.7809 441.147 24.4482C440.833 24.1156 440.414 23.9492 439.89 23.9492C439.261 23.9492 438.771 24.1292 438.42 24.4893C438.074 24.8447 437.9 25.3415 437.9 25.9795H436.636C436.636 25.0635 436.93 24.3229 437.518 23.7578C438.11 23.1927 438.901 22.9102 439.89 22.9102C440.815 22.9102 441.546 23.154 442.084 23.6416C442.622 24.1247 442.891 24.7695 442.891 25.5762C442.891 26.556 442.266 27.7227 441.018 29.0762L438.352 31.9678H443.349V33Z" fill="#BFBFBF"/>
<path d="M718.666 27.4082H719.616C720.213 27.3991 720.683 27.2419 721.024 26.9365C721.366 26.6312 721.537 26.2188 721.537 25.6992C721.537 24.5326 720.956 23.9492 719.794 23.9492C719.247 23.9492 718.81 24.1064 718.481 24.4209C718.158 24.7308 717.996 25.1432 717.996 25.6582H716.731C716.731 24.8698 717.019 24.2158 717.593 23.6963C718.172 23.1722 718.905 22.9102 719.794 22.9102C720.733 22.9102 721.469 23.1585 722.002 23.6553C722.535 24.152 722.802 24.8424 722.802 25.7266C722.802 26.1595 722.66 26.5788 722.378 26.9844C722.1 27.39 721.719 27.693 721.236 27.8936C721.783 28.0667 722.205 28.3538 722.501 28.7549C722.802 29.1559 722.952 29.6458 722.952 30.2246C722.952 31.1178 722.66 31.8265 722.077 32.3506C721.494 32.8747 720.735 33.1367 719.801 33.1367C718.867 33.1367 718.105 32.8838 717.518 32.3779C716.934 31.8721 716.643 31.2044 716.643 30.375H717.914C717.914 30.8991 718.085 31.3184 718.427 31.6328C718.769 31.9473 719.227 32.1045 719.801 32.1045C720.411 32.1045 720.879 31.945 721.202 31.626C721.526 31.307 721.688 30.849 721.688 30.252C721.688 29.6732 721.51 29.2288 721.154 28.9189C720.799 28.609 720.286 28.4495 719.616 28.4404H718.666V27.4082Z" fill="#BFBFBF"/>
<path d="M1002.17 29.6572H1003.55V30.6895H1002.17V33H1000.89V30.6895H996.362V29.9443L1000.82 23.0469H1002.17V29.6572ZM997.798 29.6572H1000.89V24.7764L1000.74 25.0498L997.798 29.6572Z" fill="#BFBFBF"/>
<rect x="1270" y="1" width="170" height="818" fill="black" fill-opacity="0.72"/>
<line x1="1271" y1="1" x2="1271" y2="820" stroke="#83CBFF" stroke-width="2"/>
<path d="M157 1H141V16.6L149.296 25L157 16.6V1Z" fill="#5778AA" stroke="#90BCFE" stroke-width="2"/>
<line x1="149" y1="22.9986" x2="150" y2="734.999" stroke="#90BCFE" stroke-width="2"/>
<rect x="1430" y="1" width="10" height="737" fill="white" fill-opacity="0.2"/>
<rect x="1430" y="166" width="10" height="204" rx="5" fill="white" fill-opacity="0.6"/>
</svg>
