<svg width="99" height="20" viewBox="0 0 99 20" fill="none" xmlns="http://www.w3.org/2000/svg">
<path d="M10.32 16.78V12.92H16.06V10.62H10.32V7.16H17.02V4.84H10.68L11.74 4.06C10.9 3.14 9.18 1.86 7.9 1.04L5.94 2.4C6.9 3.1 8.1 4.02 8.94 4.84H0.94V7.16H7.7V10.62H2V12.92H7.7V16.78H0.1V19.12H18V16.78H10.32ZM34.16 13.94H37.5V11.92H34.16V9.16H35.6C35.46 9.74 35.28 10.26 35.12 10.7L36.92 11.3C37.38 10.34 37.88 8.82 38.3 7.5L36.72 7.02L36.38 7.12H29.8C30.1 6.64 30.42 6.12 30.7 5.56H38.22V3.4H31.6C31.82 2.78 32.02 2.16 32.18 1.5L29.86 1.04C29.48 2.68 28.86 4.26 28.02 5.5V4.1H25L25.74 3.86C25.46 3.1 24.92 1.96 24.42 1.08L22.22 1.66C22.6 2.4 23.02 3.34 23.3 4.1H19.82V6.3H21.72C21.66 11.18 21.52 15.38 19.48 18.06C20.08 18.44 20.78 19.16 21.16 19.72C22.9 17.44 23.54 14.26 23.82 10.56H25.32C25.24 15.24 25.12 16.92 24.86 17.34C24.72 17.58 24.58 17.64 24.32 17.64C24.02 17.64 23.48 17.64 22.9 17.56C23.2 18.16 23.42 19.04 23.46 19.68C24.28 19.7 25 19.7 25.48 19.58C26.04 19.48 26.4 19.3 26.78 18.74C27.28 18.04 27.38 15.7 27.48 9.32V8.4H23.92C23.96 7.7 23.96 7.02 23.98 6.3H27.4C27.26 6.46 27.12 6.62 26.96 6.76C27.48 7.1 28.36 7.82 28.8 8.24V9.16H32V16.06C31.48 15.52 31.06 14.74 30.74 13.64C30.84 12.7 30.88 11.7 30.92 10.68H28.86C28.8 13.72 28.62 16.46 27.16 18.12C27.66 18.44 28.28 19.2 28.56 19.7C29.32 18.9 29.84 17.9 30.16 16.74C31.4 18.88 33.14 19.4 35.36 19.4H37.94C38.02 18.78 38.3 17.78 38.56 17.26C37.88 17.28 36 17.28 35.52 17.28C35.04 17.28 34.6 17.26 34.16 17.18V13.94ZM43.66 1.1C42.84 2.42 41.16 4.04 39.62 5.02C39.98 5.48 40.56 6.46 40.82 6.98C42.64 5.78 44.62 3.84 45.92 1.98L43.66 1.1ZM52.76 7.94H54.88V8.98H52.76V7.94ZM52.76 4.9H54.88V5.92H52.76V4.9ZM57.14 10.9V7.94H58.34V5.92H57.14V2.98H52.76V1.06H50.48V2.98H46.62V4.9H50.48V5.92H45.8V6.2L44.1 5.48C42.98 7.4 41.1 9.38 39.44 10.62C39.78 11.2 40.36 12.5 40.54 13C41.1 12.54 41.66 12 42.24 11.4V19.76H44.48V8.78C44.96 8.16 45.42 7.52 45.8 6.9V7.94H50.48V8.98H46.54V10.9H50.48V11.9H46.24V13.86H50.48V14.92H45.48V16.98H50.48V19.74H52.76V16.98H58.14V14.92H52.76V13.86H57.36V11.9H52.76V10.9H57.14ZM68.48 15.1L68.36 13L66.34 13.32V11.5H68.3V9.36H66.34V6.54H64.08V9.36H62.62C63.2 8.2 63.8 6.86 64.34 5.46H68.16V3.24H65.12C65.3 2.62 65.48 2.04 65.64 1.42L63.14 0.919999C63 1.7 62.82 2.48 62.6 3.24H59.86V5.46H61.9C61.48 6.7 61.1 7.68 60.88 8.1C60.46 8.94 60.16 9.5 59.68 9.64C59.96 10.24 60.34 11.36 60.46 11.82C60.64 11.62 61.4 11.5 62.12 11.5H64.08V13.66C62.38 13.9 60.82 14.12 59.6 14.28L60.08 16.62L64.08 15.92V19.68H66.34V15.5L68.48 15.1ZM76.12 17.36C75.96 17.36 75.82 17.28 75.82 16.7V4.82H72.42V1.14H70.26V4.82H68.58V7.06H70.26C70.22 10.34 69.88 15.08 67.12 18.34C67.68 18.68 68.48 19.4 68.84 19.86C71.84 16.08 72.36 10.84 72.42 7.06H73.68V17C73.68 18.82 74.34 19.32 75.6 19.32H76.38C78.08 19.32 78.38 18.36 78.56 15.6C78 15.44 77.18 15.1 76.64 14.66C76.62 16.8 76.54 17.36 76.26 17.36H76.12ZM94.22 9.32H88.82V8.22H94.22V9.32ZM94.22 11.9H88.82V10.82H94.22V11.9ZM94.22 14.52H88.82V13.42H94.22V14.52ZM86.58 6.56V16.2H96.56V6.56H92.02C92.2 6.2 92.4 5.8 92.6 5.38H98V3.44H94.8C95.18 2.9 95.58 2.32 96 1.7L93.7 1.06C93.42 1.76 92.9 2.72 92.44 3.44H89.32L90.32 3C90.06 2.44 89.48 1.54 89 0.9L86.98 1.74C87.34 2.26 87.72 2.9 87.98 3.44H85.26V5.38H90.06C89.98 5.78 89.88 6.18 89.78 6.56H86.58ZM84.66 5.08C84.06 4.14 82.78 2.76 81.76 1.82L79.94 2.98C80.96 4.02 82.18 5.48 82.7 6.4L84.66 5.08ZM84.58 8.2H79.94V10.4H82.3V15.86C81.42 16.24 80.46 16.94 79.54 17.8L80.98 19.8C81.88 18.66 82.9 17.5 83.6 17.5C84.1 17.5 84.76 18.04 85.68 18.5C87.18 19.24 88.9 19.48 91.3 19.48C93.24 19.48 96.44 19.36 97.76 19.28C97.8 18.62 98.14 17.58 98.4 16.98C96.46 17.24 93.42 17.42 91.38 17.42C89.24 17.42 87.42 17.28 86.06 16.6C85.44 16.32 84.98 16.02 84.58 15.8V8.2Z" fill="#90BCFE"/>
</svg>
