<svg width="64" height="16" viewBox="0 0 64 16" fill="none" xmlns="http://www.w3.org/2000/svg">
<path opacity="0.5" d="M3.808 9.536C3.04 10.944 1.792 12.464 0.688 13.456C0.944 13.632 1.44 14.016 1.648 14.224C2.752 13.12 4.064 11.44 4.96 9.92L3.808 9.536ZM14.752 8.16V6.976H8.928V3.792H7.728V6.976H3.232C3.552 5.776 3.808 4.288 3.952 2.88C7.392 2.8 11.424 2.464 13.952 1.84L13.264 0.799999C10.848 1.44 6.384 1.744 2.784 1.84C2.768 3.68 2.352 5.728 2.208 6.24C2.064 6.8 1.92 7.184 1.712 7.264C1.84 7.552 2.048 8.112 2.112 8.368C2.272 8.224 2.928 8.16 3.984 8.16H7.728V13.664C7.728 13.936 7.616 14 7.344 14.016C7.072 14.032 6.128 14.032 5.12 14C5.296 14.336 5.472 14.864 5.536 15.184C6.912 15.2 7.728 15.168 8.24 14.96C8.736 14.784 8.928 14.416 8.928 13.68V8.16H14.752ZM11.056 10.032C12.208 11.296 13.584 13.088 14.208 14.176L15.312 13.6C14.656 12.528 13.232 10.8 12.08 9.552L11.056 10.032ZM21.648 10.784L19.904 11.36V7.392H21.504V6.288H19.904V2.816H21.744V1.696H16.784V2.816H18.768V6.288H16.96V7.392H18.768V11.712C17.952 11.984 17.216 12.208 16.624 12.384L16.896 13.584C18.32 13.12 20.144 12.496 21.856 11.92L21.648 10.784ZM23.616 5.392H26.048V7.424H23.616V5.392ZM23.616 2.384H26.048V4.4H23.616V2.384ZM29.52 4.4H27.072V2.384H29.52V4.4ZM29.52 7.424H27.072V5.392H29.52V7.424ZM27.168 13.616V11.424H30.896V10.336H27.168V8.464H30.656V1.344H22.528V8.464H25.968V10.336H22.336V11.424H25.968V13.616H21.104V14.704H31.408V13.616H27.168ZM39.712 2.976C39.328 2.288 38.48 1.28 37.76 0.559999L36.928 1.104C37.648 1.872 38.464 2.912 38.832 3.6L39.712 2.976ZM34.032 14.944C34.72 13.488 35.52 11.536 36.128 9.872L35.168 9.248C34.528 11.024 33.616 13.088 32.976 14.32L34.032 14.944ZM35.952 6.528C35.392 6.016 34.24 5.408 33.296 5.04L32.656 5.92C33.584 6.32 34.704 6.992 35.264 7.504L35.952 6.528ZM33.248 1.76C34.208 2.224 35.36 2.992 35.888 3.552L36.608 2.608C36.032 2.048 34.88 1.328 33.92 0.912L33.248 1.76ZM36.656 15.136H37.728V3.936H36.656V15.136ZM44.672 11.936H42.224V9.104H44.256V8.064H42.224V5.52H44.512V4.48H38.8V5.52H41.136V8.064H39.024V9.104H41.136V11.936H38.592V12.976H44.672V11.936ZM46.72 1.328H40.112V2.432H45.648V13.616C45.648 13.92 45.552 14.016 45.264 14.032C44.96 14.032 43.936 14.048 42.864 14C43.04 14.336 43.216 14.848 43.264 15.184C44.64 15.184 45.536 15.168 46.048 14.96C46.544 14.768 46.72 14.416 46.72 13.632V1.328ZM57.568 3.072C57.104 3.744 56.48 4.48 55.888 5.024H51.664C52.272 4.416 52.88 3.76 53.392 3.072H57.568ZM60.56 8.912H56.736V6.128H60.56V8.912ZM51.904 6.128H55.584V8.912H51.904V6.128ZM53.968 13.872C52.24 13.872 51.904 13.632 51.904 12.688V10.048H60.56V10.752H61.728V5.024H57.328C58.08 4.256 58.816 3.344 59.376 2.496L58.592 1.936L58.352 2H54.144C54.352 1.648 54.544 1.312 54.736 0.959999L53.68 0.559999C52.576 2.704 50.624 4.656 48.688 5.84C48.88 6.112 49.232 6.688 49.328 6.96C49.808 6.624 50.288 6.272 50.752 5.856V12.672C50.752 14.512 51.536 14.96 54.048 14.96H60.192C62.592 14.96 63.072 14.24 63.344 11.76C62.992 11.696 62.512 11.52 62.208 11.328C62.016 13.424 61.776 13.872 60.192 13.872H53.968Z" fill="white"/>
</svg>
