<svg width="110" height="35" viewBox="0 0 110 35" fill="none" xmlns="http://www.w3.org/2000/svg">
<path d="M21.264 27.832V21.856H25.8V27.832H21.264ZM4.2 21.856H8.52V27.832H4.2V21.856ZM8.52 11.776V17.788H4.2V11.776H8.52ZM17.052 21.856V27.832H12.732V21.856H17.052ZM17.052 11.776V17.788H12.732V11.776H17.052ZM25.8 11.776V17.788H21.264V11.776H25.8ZM21.264 7.6V0.868H17.052V7.6H12.732V0.868H8.52V7.6H0.168V34.024H4.2V32.044H25.8V33.988H30.012V7.6H21.264ZM42.468 27.328V23.08H59.136V27.328H42.468ZM59.136 14.8V19.048H42.468V14.8H59.136ZM59.136 6.628V10.768H42.468V6.628H59.136ZM38.148 2.452V33.736H42.468V31.504H59.136V33.736H63.672V2.452H38.148ZM71.952 31H87.972V26.716H82.968V4.324H79.044C77.352 5.404 75.516 6.088 72.852 6.592V9.868H77.676V26.716H71.952V31ZM93.1512 31H109.171V26.716H104.167V4.324H100.243C98.5512 5.404 96.7152 6.088 94.0512 6.592V9.868H98.8752V26.716H93.1512V31Z" fill="white"/>
</svg>
