<svg width="428" height="20" viewBox="0 0 428 20" fill="none" xmlns="http://www.w3.org/2000/svg">
<path d="M5.57688 3.56C4.93688 2.74 3.55688 1.48 2.49688 0.599999L1.31688 1.74C2.37688 2.68 3.69688 4 4.31688 4.84L5.57688 3.56ZM4.69688 14.56V6.38H0.176875V8.16H2.91688V14.96C2.91688 15.84 2.35688 16.46 1.93687 16.72C2.25688 17.08 2.71688 17.84 2.87688 18.28C3.19688 17.86 3.77688 17.36 7.21688 14.7C7.01688 14.34 6.71688 13.62 6.59688 13.14L4.69688 14.56ZM9.43688 14.3V12.9H15.1969V14.3H9.43688ZM15.1969 10.34V11.64H9.43688V10.34H15.1969ZM16.9569 8.94H7.71688V18.56H9.43688V15.6H15.1969V16.62C15.1969 16.86 15.1169 16.94 14.8369 16.96C14.5769 16.96 13.6369 16.98 12.7169 16.92C12.9169 17.36 13.1569 18.06 13.2369 18.52C14.6369 18.52 15.5569 18.5 16.1769 18.24C16.7769 17.98 16.9569 17.5 16.9569 16.66V8.94ZM13.2369 6.58V5.42H17.2569V4.12H13.2369V3.08H17.8569V1.7H13.2369V0.219999H11.3969V1.7H6.93688V3.08H11.3969V4.12H7.43688V5.42H11.3969V6.58H6.31688V7.96H18.4569V6.58H13.2369ZM28.6369 12.14L27.1969 12.44V10.3H28.6369V8.62H27.1969V5.74H25.6169V8.62H24.1569C24.6569 7.3 25.1169 5.78 25.4969 4.18H28.6769V2.52H25.8569C25.9769 1.86 26.0969 1.16 26.1969 0.499999L24.4969 0.239999C24.4369 1 24.3169 1.78 24.1969 2.52H22.2369V4.18H23.8769C23.5769 5.74 23.2369 6.98 23.0769 7.46C22.7769 8.34 22.5569 8.98 22.1969 9.06C22.3969 9.48 22.6569 10.26 22.7169 10.58C22.9169 10.42 23.5369 10.3 24.1369 10.3H25.6169V12.76C24.2969 13.04 23.1169 13.28 22.1569 13.46L22.5569 15.2C23.4569 15 24.5169 14.74 25.6169 14.48V18.56H27.1969V14.08L28.7769 13.68L28.6369 12.14ZM31.0169 13.16V11.82H33.3969V13.16H31.0169ZM33.3969 9.12V10.44H31.0169V9.12H33.3969ZM34.8969 7.66H29.5169V18.52H31.0169V14.54H33.3969V16.76C33.3969 16.94 33.3569 17 33.1769 17C32.9969 17 32.4969 17 31.8969 16.98C32.1169 17.4 32.2969 18.06 32.3369 18.46C33.2369 18.46 33.8569 18.44 34.3369 18.2C34.7769 17.94 34.8969 17.5 34.8969 16.78V7.66ZM38.3569 16.62C38.3569 16.86 38.2769 16.92 38.0369 16.92C37.7969 16.94 36.9569 16.94 36.0769 16.92C36.2969 17.34 36.4969 17.98 36.5569 18.4C37.7569 18.4 38.5769 18.36 39.1169 18.12C39.6769 17.88 39.8169 17.44 39.8169 16.62V7.36H38.3569V16.62ZM37.2569 8.1H35.8369V15.32H37.2569V8.1ZM31.7969 5.02C32.7769 4.32 33.7169 3.5 34.5169 2.6C35.3969 3.54 36.3569 4.34 37.3769 5.02H31.7969ZM34.3969 0.139999C33.0769 2.18 30.5769 4.04 28.1769 5.1C28.6369 5.48 29.1169 6.08 29.3969 6.5C29.8369 6.28 30.2769 6.04 30.6969 5.76L30.7169 6.52H38.3169V5.62C38.7369 5.88 39.1969 6.1 39.6369 6.34C39.8569 5.88 40.3569 5.3 40.7769 4.9C38.7769 4.08 36.9769 3.04 35.4769 1.44C35.6369 1.24 35.7769 1.04 35.9169 0.82L34.3969 0.139999ZM49.0369 2.1C50.3369 3 51.3369 4.06 52.1969 5.28C50.9569 10.76 48.4969 14.7 44.1369 16.9C44.6169 17.24 45.5169 18.02 45.8369 18.42C49.6769 16.16 52.1769 12.66 53.6969 7.76C55.7969 11.62 57.3369 15.96 61.6769 18.4C61.7769 17.82 62.2569 16.8 62.5769 16.28C56.0769 12.3 56.4969 5.08 50.1969 0.519999L49.0369 2.1ZM76.3169 16.1V11.68H82.3169V9.88H76.3169V5.9H83.1969V4.08H76.8369L77.8169 3.38C76.9969 2.44 75.3569 1.1 74.0769 0.239999L72.5569 1.3C73.6569 2.08 74.9569 3.2 75.7769 4.08H67.3769V5.9H74.2769V9.88H68.3369V11.68H74.2769V16.1H66.4769V17.92H84.1969V16.1H76.3169ZM102.077 12.64H105.657V11.04H102.077V7.88H104.157C103.937 8.54 103.677 9.2 103.477 9.68L104.897 10.2C105.377 9.28 105.897 7.82 106.357 6.56L105.137 6.18L104.857 6.26H97.5769C97.9569 5.7 98.3369 5.06 98.6969 4.38H106.397V2.7H99.3969C99.6569 2.02 99.8769 1.28 100.057 0.559999L98.2369 0.219999C97.8169 1.94 97.1569 3.62 96.2369 4.92V3.36H92.8769L93.7769 3.04C93.5169 2.3 92.8969 1.16 92.3769 0.279999L90.6769 0.799999C91.1169 1.58 91.5969 2.6 91.8969 3.36H88.2169V5.08H90.2569C90.1969 10.38 90.0369 14.68 87.8769 17.3C88.3569 17.58 88.9369 18.14 89.2369 18.58C91.0569 16.34 91.6369 13.12 91.8769 9.18H93.8569C93.7369 14.32 93.6169 16.16 93.3169 16.58C93.1569 16.82 92.9969 16.86 92.7369 16.86C92.4369 16.86 91.8169 16.86 91.1369 16.8C91.3969 17.26 91.5369 17.96 91.5769 18.46C92.3969 18.48 93.1369 18.5 93.6169 18.4C94.1569 18.34 94.4769 18.16 94.8169 17.68C95.3169 17 95.4369 14.74 95.5569 8.26V7.48H91.9569C91.9769 6.72 91.9969 5.9 92.0169 5.08H96.1169C95.8769 5.4 95.6369 5.7 95.3769 5.96C95.7769 6.24 96.5369 6.84 96.8569 7.16L97.0569 6.92V7.88H100.397V15.62C99.6769 15.02 99.1169 14.06 98.7169 12.58C98.8169 11.62 98.8769 10.62 98.9169 9.58H97.2969C97.2169 12.72 96.9569 15.66 95.3769 17.3C95.7769 17.56 96.2969 18.14 96.5369 18.54C97.3769 17.68 97.8969 16.56 98.2569 15.24C99.4569 17.66 101.217 18.22 103.537 18.22H106.137C106.217 17.76 106.437 16.96 106.657 16.54C106.057 16.56 104.097 16.56 103.637 16.56C103.097 16.56 102.577 16.52 102.077 16.42V12.64ZM114.237 0.279999C113.417 1.66 111.697 3.3 110.177 4.26C110.457 4.64 110.917 5.38 111.117 5.8C112.897 4.62 114.817 2.72 116.017 0.979999L114.237 0.279999ZM122.757 6.76H125.377V8.18H122.757V6.76ZM122.757 3.78H125.377V5.18H122.757V3.78ZM127.137 9.7V6.76H128.497V5.18H127.137V2.26H122.757V0.239999H120.957V2.26H116.937V3.78H120.957V5.18H116.077V5.22L114.617 4.62C113.477 6.6 111.617 8.58 109.917 9.88C110.217 10.34 110.677 11.34 110.837 11.74C111.477 11.2 112.177 10.52 112.837 9.8V18.56H114.577V7.72C115.117 7 115.657 6.26 116.077 5.52V6.76H120.957V8.18H116.857V9.7H120.957V11.06H116.597V12.6H120.957V14.02H115.757V15.62H120.957V18.56H122.757V15.62H128.277V14.02H122.757V12.6H127.397V11.06H122.757V9.7H127.137ZM134.717 14.88V10.46H138.437V14.88H134.717ZM138.437 5.04V8.84H134.717V5.04H138.437ZM144.097 3.32C144.417 2.44 144.677 1.52 144.917 0.599999L143.117 0.18C142.517 2.82 141.457 5.48 140.137 7.2V3.42H136.937C137.257 2.58 137.637 1.52 137.977 0.519999L135.957 0.18C135.837 1.14 135.537 2.46 135.257 3.42H133.017V18.04H134.717V16.52H140.137V7.34C140.597 7.6 141.297 8.1 141.597 8.38C142.237 7.46 142.857 6.3 143.417 5.02H148.137C147.877 12.56 147.617 15.58 146.977 16.24C146.757 16.52 146.537 16.58 146.137 16.58C145.637 16.58 144.477 16.56 143.197 16.46C143.537 16.98 143.757 17.76 143.797 18.26C144.937 18.32 146.117 18.34 146.817 18.26C147.577 18.16 148.057 17.98 148.557 17.32C149.357 16.32 149.597 13.22 149.877 4.2C149.897 3.96 149.897 3.32 149.897 3.32H144.097ZM146.657 12.34C146.057 11.16 144.697 9.26 143.637 7.88L142.177 8.7C143.237 10.14 144.537 12.1 145.097 13.32L146.657 12.34ZM157.317 12.9V11.2H161.277V12.9H157.317ZM161.277 8.14V9.78H157.317V8.14H161.277ZM163.057 6.56H155.577V18.48H157.317V14.32H161.277V16.58C161.277 16.84 161.197 16.92 160.917 16.94C160.677 16.96 159.797 16.96 158.917 16.92C159.157 17.34 159.417 18.06 159.537 18.52C160.797 18.52 161.697 18.5 162.297 18.2C162.877 17.94 163.057 17.48 163.057 16.62V6.56ZM169.157 16.4C169.157 16.68 169.057 16.76 168.737 16.78C168.437 16.8 167.357 16.8 166.237 16.76C166.497 17.22 166.817 18.02 166.897 18.52C168.397 18.54 169.437 18.48 170.097 18.18C170.777 17.9 170.997 17.4 170.997 16.42V6.18H169.157V16.4ZM166.897 6.74H165.177V14.88H166.897V6.74ZM167.837 3.26C168.397 2.5 168.957 1.62 169.497 0.759999L167.477 0.139999C167.077 1.08 166.377 2.32 165.717 3.26H159.957L160.977 2.88C160.637 2.12 159.797 1 159.057 0.199999L157.317 0.799999C157.937 1.54 158.637 2.54 158.977 3.26H154.397V4.96H172.217V3.26H167.837ZM178.017 11.26L180.917 6.82C181.337 6.06 181.737 5.3 182.097 4.54H182.177C182.137 5.36 182.077 6.6 182.077 7.4V11.26H178.017ZM182.077 17H184.237V13.04H186.097V11.26H184.237V2.26H181.557L175.697 11.5V13.04H182.077V17ZM197.763 0.499999V16.12C197.763 16.52 197.623 16.64 197.203 16.66C196.783 16.68 195.323 16.68 193.963 16.62C194.263 17.16 194.583 18.04 194.703 18.56C196.603 18.58 197.883 18.52 198.683 18.22C199.463 17.9 199.783 17.36 199.783 16.12V0.499999H197.763ZM202.543 5.6C204.163 8.48 205.743 12.2 206.163 14.56L208.183 13.76C207.683 11.34 206.043 7.7 204.343 4.92L202.543 5.6ZM192.583 5.08C192.123 7.72 191.063 11.16 189.383 13.24C189.883 13.42 190.703 13.88 191.163 14.22C192.903 12 194.023 8.38 194.683 5.46L192.583 5.08ZM227.803 7.24H212.723V9.04H217.703V18.52H219.663V9.04H225.863V13.68C225.863 13.98 225.763 14.04 225.363 14.06C224.963 14.08 223.603 14.08 222.283 14.02C222.523 14.58 222.763 15.42 222.823 15.98C224.683 15.98 225.963 15.98 226.783 15.68C227.583 15.38 227.803 14.78 227.803 13.72V7.24ZM225.163 2.34V0.219999H223.203V2.34H218.223V0.219999H216.323V2.34H211.863V4.12H216.323V6.24H218.223V4.12H223.203V6.24H225.163V4.12H229.563V2.34H225.163ZM236.163 19.4C238.443 18.68 239.843 16.94 239.843 14.74C239.843 13.22 239.183 12.24 237.923 12.24C237.003 12.24 236.223 12.82 236.223 13.84C236.223 14.86 237.003 15.42 237.903 15.42C238.003 15.42 238.103 15.42 238.183 15.4C238.083 16.62 237.183 17.54 235.643 18.1L236.163 19.4ZM260.183 0.299999C259.103 3.22 257.323 6.14 255.423 8.02C255.743 8.44 256.283 9.48 256.463 9.94C257.023 9.36 257.583 8.7 258.103 7.98V18.54H259.983V5.04C260.743 3.7 261.423 2.26 261.963 0.859999L260.183 0.299999ZM273.923 5.28V3.5H265.883C266.263 2.66 266.603 1.78 266.923 0.92L265.143 0.439999C264.183 3.32 262.583 6.2 260.823 8.04C261.243 8.32 261.963 8.98 262.263 9.3C263.223 8.24 264.143 6.84 264.983 5.28H266.103V18.56H268.003V13.92H273.723V12.18H268.003V9.52H273.443V7.82H268.003V5.28H273.923ZM283.483 3.7C283.083 2.88 282.183 1.64 281.403 0.759999L279.803 1.44C280.543 2.38 281.403 3.66 281.763 4.46L283.483 3.7ZM286.543 4.94C286.583 4.18 286.603 3.46 286.603 2.76V0.279999H284.723V2.76C284.723 3.44 284.703 4.18 284.663 4.94H278.363V6.8H284.443C283.923 10.2 282.323 14.04 277.843 16.9C278.323 17.2 279.023 17.86 279.323 18.26C284.223 15.04 285.863 10.64 286.363 6.8H292.743C292.503 13.08 292.223 15.64 291.643 16.22C291.403 16.48 291.203 16.54 290.783 16.52C290.263 16.52 289.083 16.52 287.783 16.42C288.143 16.98 288.403 17.8 288.443 18.34C289.643 18.4 290.883 18.44 291.603 18.34C292.363 18.26 292.883 18.06 293.383 17.42C294.183 16.48 294.423 13.66 294.723 5.86C294.743 5.6 294.743 4.94 294.743 4.94H286.543ZM290.703 12.72C290.203 11.7 289.083 10.14 288.103 9L286.523 9.74C287.483 10.92 288.583 12.54 289.063 13.58L290.703 12.72ZM313.203 11.28V13.02H304.323V11.28H313.203ZM304.323 16.32V14.48H313.203V16.32H304.323ZM302.463 18.6H304.323V17.88H313.203V18.56H315.143V9.74H302.463V18.6ZM312.883 6.54C313.303 5.8 313.723 4.88 314.143 4.02L312.263 3.6H316.623V1.94H310.023C309.823 1.34 309.503 0.599999 309.123 0.0599988L307.223 0.379999C307.503 0.839999 307.763 1.42 307.923 1.94H300.983V3.6H312.063C311.803 4.48 311.303 5.7 310.863 6.54H306.303L306.563 6.48C306.403 5.7 305.923 4.5 305.363 3.64L303.543 4.02C303.983 4.78 304.383 5.78 304.563 6.54H299.863V8.2H317.563V6.54H312.883ZM325.343 11.38C324.383 13.08 322.863 14.96 321.503 16.18C321.923 16.46 322.683 17.04 323.043 17.36C324.383 16.02 326.023 13.88 327.143 11.98L325.343 11.38ZM339.123 9.9L339.143 8.04H332.083V4.28H330.163V8.04H325.083C325.423 6.62 325.723 4.92 325.883 3.3C330.143 3.18 334.983 2.84 338.263 2.06L337.263 0.399999C334.083 1.16 328.623 1.54 324.063 1.64C324.043 3.94 323.563 6.52 323.403 7.18C323.223 7.9 323.023 8.36 322.723 8.46C322.943 8.92 323.243 9.78 323.363 10.18C323.563 10 324.503 9.9 325.743 9.9H330.163V16.24C330.163 16.58 330.043 16.66 329.683 16.66C329.343 16.68 328.163 16.68 326.963 16.64C327.243 17.16 327.523 18 327.603 18.52C329.303 18.54 330.403 18.5 331.123 18.18C331.843 17.9 332.083 17.36 332.083 16.26V9.9H339.123ZM334.403 12.1C335.763 13.72 337.403 15.96 338.143 17.3L339.883 16.46C339.083 15.08 337.383 12.94 336.023 11.42L334.403 12.1ZM353.703 16.16V11.56H359.923V9.78H353.703V5.78H360.663V3.96H353.703V0.239999H351.783V3.96H348.163C348.543 3 348.903 1.98 349.203 0.959999L347.283 0.519999C346.543 3.32 345.283 6.06 343.663 7.76C344.163 8.02 344.983 8.56 345.363 8.88C346.063 8.04 346.723 6.98 347.343 5.78H351.783V9.78H346.083V11.56H351.783V16.16H343.863V17.96H361.623V16.16H353.703ZM380.683 6.58C380.103 8.42 379.363 10.08 378.403 11.56C377.943 9.78 377.623 7.62 377.423 5.24H383.703V3.42H381.663L382.623 2.4C381.843 1.72 380.343 0.799999 379.163 0.18L378.043 1.32C379.103 1.9 380.403 2.76 381.183 3.42H377.323C377.263 2.38 377.243 1.32 377.263 0.239999H375.303C375.303 1.3 375.343 2.38 375.403 3.42H367.183V9.08C367.183 11.66 367.043 15.1 365.443 17.5C365.863 17.74 366.683 18.4 367.003 18.78C368.763 16.2 369.103 12.2 369.123 9.36H372.323C372.263 12.38 372.143 13.52 371.923 13.8C371.783 13.98 371.583 14.04 371.303 14.04C370.983 14.04 370.203 14.02 369.383 13.94C369.663 14.42 369.843 15.14 369.883 15.68C370.843 15.72 371.743 15.72 372.243 15.64C372.783 15.58 373.163 15.42 373.523 15C373.943 14.44 374.043 12.72 374.143 8.38V7.66H369.123V5.24H375.523C375.763 8.36 376.223 11.22 376.943 13.48C375.723 14.9 374.243 16.06 372.583 16.98C373.003 17.32 373.663 18.1 373.943 18.5C375.323 17.66 376.583 16.64 377.723 15.44C378.623 17.32 379.783 18.44 381.243 18.44C382.883 18.44 383.563 17.5 383.863 13.98C383.363 13.8 382.703 13.38 382.263 12.94C382.143 15.52 381.903 16.54 381.383 16.54C380.543 16.54 379.763 15.5 379.083 13.8C380.543 11.88 381.723 9.62 382.563 7.04L380.683 6.58ZM393.343 8.48H400.143V9.68H393.343V8.48ZM400.143 3.5V4.62H393.343V3.5H400.143ZM393.343 5.98H400.143V7.12H393.343V5.98ZM405.803 11.22V9.68H402.043V3.5H404.903V1.98H402.043V0.26H400.143V1.98H393.343V0.239999H391.483V1.98H388.583V3.5H391.483V9.68H387.603V11.22H391.723C390.583 12.46 388.983 13.58 387.403 14.18C387.803 14.5 388.343 15.16 388.603 15.6C389.743 15.06 390.903 14.3 391.903 13.4V14.72H395.723V16.5H389.263V18.04H404.323V16.5H397.603V14.72H401.563V13.24H397.603V11.74H395.723V13.24H392.063C392.723 12.62 393.343 11.92 393.823 11.22H399.783C401.003 12.96 402.923 14.54 404.843 15.38C405.103 14.94 405.663 14.28 406.043 13.94C404.503 13.4 402.943 12.38 401.823 11.22H405.803ZM414.643 14.48H412.543V8.96H414.643V14.48ZM409.743 2.9H412.063C411.523 5.74 410.643 8.4 409.323 10.18C409.583 10.68 409.983 11.8 410.063 12.28C410.403 11.86 410.703 11.42 411.003 10.92V17.66H412.543V16.12H416.183V7.32H412.623C413.103 5.92 413.503 4.42 413.803 2.9H416.643V1.22H409.743V2.9ZM425.523 9.94V15.6H423.143V8.76H426.843V2.14H425.083V7.12H423.143V0.339999H421.303V7.12H419.243V2.14H417.563V8.76H421.303V15.6H418.983V9.94H417.123V17.38H425.523V18.44H427.323V9.96L425.523 9.94Z" fill="#90BCFE"/>
</svg>
